PathFileType	3	(X/Y/Z)	D:\VICON_DB\Goncalves\Pilot01\09-03-2026\walking_02.trc
DataRate	CameraRate	NumFrames	NumMarkers	Units	OrigDataRate	OrigDataStartFrame	OrigNumFrames
200.0	200.0	8	34	mm	200.0	651	1300	
Frame#	Time	LASI			RASI			LPSI			RPSI			LTHI			LTHAP			LTHAD			LKNE			LKNM			LTIB			LTIAP			LTIAD			LANK			LMED			LHEE			LTOE			LFMH			LSMH			LVMH			RTHI			RTHAP			RTHAD			RKNE			RKNM			RTIB			RTIAP			RTIAD			RANK			RMED			RHEE			RTOE			RFMH			RSMH			RVMH			
		X1	Y1	Z1	X2	Y2	Z2	X3	Y3	Z3	X4	Y4	Z4	X5	Y5	Z5	X6	Y6	Z6	X7	Y7	Z7	X8	Y8	Z8	X9	Y9	Z9	X10	Y10	Z10	X11	Y11	Z11	X12	Y12	Z12	X13	Y13	Z13	X14	Y14	Z14	X15	Y15	Z15	X16	Y16	Z16	X17	Y17	Z17	X18	Y18	Z18	X19	Y19	Z19	X20	Y20	Z20	X21	Y21	Z21	X22	Y22	Z22	X23	Y23	Z23	X24	Y24	Z24	X25	Y25	Z25	X26	Y26	Z26	X27	Y27	Z27	X28	Y28	Z28	X29	Y29	Z29	X30	Y30	Z30	X31	Y31	Z31	X32	Y32	Z32	X33	Y33	Z33	X34	Y34	Z34	
651	3.25	428.29883	896.17786	-66.15863	169.04381	891.57544	-75.262772				273.70053	934.9624	-266.8757	441.59283	690.75543	-50.51923	464.05133	760.91992	-75.401375	459.98059	621.21753	-83.208206	425.90396	463.82092	-115.17482				424.96228	267.49728	-161.67502	371.37296	345.43488	-104.12386	387.36508	240.21745	-129.69049	380.01328	66.908623	-208.06764				332.45792	65.851372	-259.45624	345.44247	68.403969	-134.08174	308.63547	44.360279	-83.012543				390.86771	22.792028	-85.756233	134.0058	634.4043	-27.294127	152.80823	761.57507	-47.268295	180.40611	688.16467	5.0136147	156.67819	492.83304	-19.494011				162.56944	314.68387	-97.270607	205.90421	344.28302	-30.749945	213.98555	275.24646	-75.036789	216.74811	131.01808	-239.34258				266.77692	144.47733	-266.04202	221.41603	101.29966	-152.91617	242.73857	65.053421	-112.66399				176.94568	47.155014	-145.23483
652	3.255	428.83609	896.14081	-61.136475	169.5544	892.23279	-69.22599				273.24982	935.32922	-261.08994	441.78802	690.13757	-46.936245	464.28348	760.50183	-71.368057	459.86899	620.87354	-80.315353	426.04956	463.63956	-113.9501				424.98611	267.50781	-161.33186	371.54181	345.3201	-103.39944	387.48724	240.16576	-129.28485	379.86423	66.961365	-208.09358				332.22656	66.018883	-259.37082	345.41791	68.410294	-133.99336	308.68921	44.348286	-82.912254				390.91953	22.809292	-85.79435	134.33041	635.9267	-19.895956	153.07558	763.02466	-40.667683	180.94965	689.87372	11.779314	157.19347	494.29849	-11.524511				162.68181	313.66309	-85.072273	206.33928	345.35269	-19.706314	214.22095	274.96158	-61.784718	216.35968	125.52766	-221.45314				266.44952	137.89603	-248.55597	220.84155	98.972137	-134.03062	241.91876	64.109947	-92.518875				176.16212	45.315041	-124.64835
653	3.26	429.35788	896.05554	-56.122948	170.04314	892.81006	-63.175358				272.81183	935.63586	-255.35378	441.92731	689.49695	-43.368782	464.47357	760.0528	-67.328125	459.70837	620.51227	-77.423851	426.16611	463.45584	-112.72155				424.98865	267.52274	-160.98465	371.68738	345.20789	-102.67365	387.59366	240.12184	-128.86577	379.69812	67.020615	-208.11211				331.97266	66.189217	-259.28561	345.38205	68.421753	-133.89221	308.74341	44.343243	-82.795204				390.9696	22.833437	-85.828896	134.66534	637.32843	-12.58056	153.33043	764.36346	-34.080723	181.49545	691.44244	18.494299	157.6913	495.63409	-3.7309926				162.73138	312.64053	-72.964012	206.6956	346.38269	-8.7958498	214.35411	274.68491	-48.583885	215.88933	120.12774	-203.37389				266.0228	131.38254	-230.85547	220.22815	96.766556	-115.0562	241.09494	63.32066	-72.350983				175.35287	43.654758	-103.96996
654	3.265	429.86234	895.9201	-51.11441	170.50795	893.30328	-57.111965				272.39423	935.88165	-249.67319	442.02039	688.82922	-39.812599	464.62506	759.57098	-63.277542	459.50266	620.13037	-74.534958	426.25446	463.2695	-111.48434				424.97028	267.54013	-160.62732	371.80704	345.09485	-101.94562	387.68213	240.08337	-128.42976	379.51651	67.087105	-208.12186				331.69904	66.362167	-259.20105	345.33496	68.437866	-133.77921	308.79785	44.346222	-82.66169				391.01791	22.864614	-85.859116	135.00763	638.60193	-5.3490129	153.57173	765.58417	-27.506996	182.04193	692.86414	25.157396	158.17036	496.83307	3.8891125				162.7164	311.62363	-60.945908	206.97113	347.3732	1.9821781	214.3849	274.42383	-35.439224	215.33342	114.84739	-185.11208				265.49023	124.96915	-212.95204	219.58417	94.701317	-96.00386	240.2834	62.700607	-52.173534				174.52916	42.192413	-83.206833
655	3.27	430.3476	895.73199	-46.107273	170.94696	893.70837	-51.036861				271.99478	936.06512	-244.03932	442.07764	688.13074	-36.263741	464.74213	759.05505	-59.213501	459.25751	619.72437	-71.650223	426.31616	463.07986	-110.23442				424.93219	267.55801	-160.25441	371.89868	344.97778	-101.21391	387.75095	240.04738	-127.9743	379.32089	67.16098	-208.12199				331.40887	66.537689	-259.11737	345.27643	68.457443	-133.6561	308.85178	44.357468	-82.512642				391.06458	22.902832	-85.884186	135.35423	639.73895	1.7962543	153.79816	766.67908	-20.946981	182.58647	694.13184	31.766531	158.62993	497.88922	11.338601				162.63702	310.6192	-49.015461	207.16684	348.32507	12.629128	214.31694	274.18582	-22.355379	214.69019	109.71515	-166.67618				264.84741	118.68772	-194.85837	218.91829	92.793716	-76.884895	239.49973	62.263371	-32.000111				173.70293	40.944683	-62.367863
656	3.275	430.81201	895.48871	-41.09816	171.35851	894.02155	-44.951054				271.60541	936.18396	-238.43484	442.10992	687.39795	-32.718678	464.82965	758.50409	-55.134487	458.97955	619.29126	-68.771248	426.35361	462.88538	-108.96873				424.87625	267.57425	-159.86122	371.96112	344.85376	-100.47668	387.79871	240.01007	-127.49776	379.11285	67.241783	-208.1122				331.10529	66.715775	-259.03418	345.20551	68.478455	-133.5256	308.90372	44.375744	-82.350098				391.10983	22.947884	-85.90345	135.70181	640.73145	8.8516588	154.00844	767.64044	-14.402037	183.12585	695.23883	38.318775	159.06956	498.79697	18.62068				162.49536	309.63342	-37.16787	207.28659	349.23987	23.146854	214.15727	273.97891	-9.3364391	213.96016	104.75861	-148.07587				264.09268	112.56921	-176.58766	218.23943	91.059967	-57.71101	238.7585	62.021381	-11.844531				172.88634	39.926758	-41.463871
657	3.28	431.25418	895.18787	-36.083965	171.74136	894.23932	-38.855419				271.21814	936.23621	-232.84265	442.12766	686.6286	-29.174049	464.89337	757.91669	-51.04018	458.67664	618.82837	-65.899651	426.36945	462.68381	-107.68494				424.80481	267.58673	-159.44408	371.99426	344.72	-99.731506	387.82416	239.96725	-126.9996	378.89386	67.328712	-208.09247				330.79129	66.896393	-258.95078	345.12082	68.498184	-133.39133	308.95139	44.398117	-82.177376				391.15381	22.999294	-85.916695	136.04668	641.57111	15.812821	154.20135	768.46027	-7.8744545	183.65607	696.17822	44.810486	159.48888	499.55167	25.739201				162.29526	308.67197	-25.396486	207.33707	350.11975	33.537594	213.91602	273.81165	3.6140149	213.14648	100.00422	-129.32202				263.22812	106.64311	-158.1535	217.55656	89.515327	-38.494465	238.0724	61.986351	8.2793732				172.09166	39.152515	-20.507633
658	3.285	431.67291	894.82715	-31.06193	172.09467	894.35822	-32.750618				270.82684	936.21979	-227.24881	442.14075	685.8208	-25.626871	464.93964	757.29199	-46.931114	458.35715	618.3335	-63.036839	426.36707	462.4729	-106.3811				424.72067	267.59344	-158.99994	371.99911	344.57416	-98.975243	387.82663	239.9146	-126.4801	378.66525	67.420853	-208.06313				330.46945	67.079414	-258.86618	345.02029	68.51368	-133.25728	308.992	44.420685	-81.998734				391.19687	23.056252	-85.924255	136.38483	642.24994	22.675001	154.37602	769.1308	-1.3674577	184.17267	696.94336	51.237389	159.88702	500.14948	32.698864				162.04208	307.74005	-13.693306	207.32713	350.9675	43.803856	213.60596	273.69275	16.492708	212.25496	95.477058	-110.42715				262.25919	100.93727	-139.56989	216.87889	88.174294	-19.248247	237.45189	62.169476	28.357809				171.33089	38.634613	0.48598397
